<svg xmlns="http://www.w3.org/2000/svg" xmlns:xlink="http://www.w3.org/1999/xlink" contentStyleType="text/css" data-diagram-type="SEQUENCE" height="770px" preserveAspectRatio="none" style="width:925px;height:770px;background:#FFFFFF;" version="1.1" viewBox="0 0 925 770" width="925px" zoomAndPan="magnify"><defs/><g><rect fill="none" height="335.5938" style="stroke:#000000;stroke-width:1.5;" width="770.5078" x="91.4756" y="337.3594"/><g><title>User</title><rect fill="#000000" fill-opacity="0.00000" height="608.6563" width="8" x="19.9551" y="81.2969"/><line style="stroke:#181818;stroke-width:0.5;stroke-dasharray:5,5;" x1="23" x2="23" y1="81.2969" y2="689.9531"/></g><g><title>RideService</title><rect fill="#000000" fill-opacity="0.00000" height="608.6563" width="8" x="145.9048" y="81.2969"/><line style="stroke:#181818;stroke-width:0.5;stroke-dasharray:5,5;" x1="149.4756" x2="149.4756" y1="81.2969" y2="689.9531"/></g><g><title>Kafka</title><rect fill="#000000" fill-opacity="0.00000" height="608.6563" width="8" x="361.896" y="81.2969"/><line style="stroke:#181818;stroke-width:0.5;stroke-dasharray:5,5;" x1="365.2085" x2="365.2085" y1="81.2969" y2="689.9531"/></g><g><title>MapService</title><rect fill="#000000" fill-opacity="0.00000" height="608.6563" width="8" x="577.8872" y="81.2969"/><line style="stroke:#181818;stroke-width:0.5;stroke-dasharray:5,5;" x1="581.2441" x2="581.2441" y1="81.2969" y2="689.9531"/></g><g><title>UserService</title><rect fill="#000000" fill-opacity="0.00000" height="608.6563" width="8" x="684.356" y="81.2969"/><line style="stroke:#181818;stroke-width:0.5;stroke-dasharray:5,5;" x1="687.5303" x2="687.5303" y1="81.2969" y2="689.9531"/></g><g><title>EBikeService</title><rect fill="#000000" fill-opacity="0.00000" height="608.6563" width="8" x="795.5825" y="81.2969"/><line style="stroke:#181818;stroke-width:0.5;stroke-dasharray:5,5;" x1="799.1816" x2="799.1816" y1="81.2969" y2="689.9531"/></g><g class="participant participant-head" data-participant="User"><text fill="#000000" font-family="sans-serif" font-size="14" lengthAdjust="spacing" textLength="31.9102" x="5" y="77.9951">User</text><ellipse cx="23.9551" cy="13.5" fill="#E2E2F0" rx="8" ry="8" style="stroke:#181818;stroke-width:0.5;"/><path d="M23.9551,21.5 L23.9551,48.5 M10.9551,29.5 L36.9551,29.5 M23.9551,48.5 L10.9551,63.5 M23.9551,48.5 L36.9551,63.5" fill="none" style="stroke:#181818;stroke-width:0.5;"/></g><g class="participant participant-tail" data-participant="User"><text fill="#000000" font-family="sans-serif" font-size="14" lengthAdjust="spacing" textLength="31.9102" x="5" y="701.9482">User</text><ellipse cx="23.9551" cy="713.75" fill="#E2E2F0" rx="8" ry="8" style="stroke:#181818;stroke-width:0.5;"/><path d="M23.9551,721.75 L23.9551,748.75 M10.9551,729.75 L36.9551,729.75 M23.9551,748.75 L10.9551,763.75 M23.9551,748.75 L36.9551,763.75" fill="none" style="stroke:#181818;stroke-width:0.5;"/></g><g class="participant participant-head" data-participant="RideService"><rect fill="#E2E2F0" height="30.2969" rx="2.5" ry="2.5" style="stroke:#181818;stroke-width:0.5;" width="96.8584" x="101.4756" y="50"/><text fill="#000000" font-family="sans-serif" font-size="14" lengthAdjust="spacing" textLength="82.8584" x="108.4756" y="69.9951">RideService</text></g><g class="participant participant-tail" data-participant="RideService"><rect fill="#E2E2F0" height="30.2969" rx="2.5" ry="2.5" style="stroke:#181818;stroke-width:0.5;" width="96.8584" x="101.4756" y="688.9531"/><text fill="#000000" font-family="sans-serif" font-size="14" lengthAdjust="spacing" textLength="82.8584" x="108.4756" y="708.9482">RideService</text></g><g class="participant participant-head" data-participant="Kafka"><rect fill="#E2E2F0" height="30.2969" rx="2.5" ry="2.5" style="stroke:#181818;stroke-width:0.5;" width="53.375" x="339.2085" y="50"/><text fill="#000000" font-family="sans-serif" font-size="14" lengthAdjust="spacing" textLength="39.375" x="346.2085" y="69.9951">Kafka</text></g><g class="participant participant-tail" data-participant="Kafka"><rect fill="#E2E2F0" height="30.2969" rx="2.5" ry="2.5" style="stroke:#181818;stroke-width:0.5;" width="53.375" x="339.2085" y="688.9531"/><text fill="#000000" font-family="sans-serif" font-size="14" lengthAdjust="spacing" textLength="39.375" x="346.2085" y="708.9482">Kafka</text></g><g class="participant participant-head" data-participant="MapService"><rect fill="#E2E2F0" height="30.2969" rx="2.5" ry="2.5" style="stroke:#181818;stroke-width:0.5;" width="95.2861" x="534.2441" y="50"/><text fill="#000000" font-family="sans-serif" font-size="14" lengthAdjust="spacing" textLength="81.2861" x="541.2441" y="69.9951">MapService</text></g><g class="participant participant-tail" data-participant="MapService"><rect fill="#E2E2F0" height="30.2969" rx="2.5" ry="2.5" style="stroke:#181818;stroke-width:0.5;" width="95.2861" x="534.2441" y="688.9531"/><text fill="#000000" font-family="sans-serif" font-size="14" lengthAdjust="spacing" textLength="81.2861" x="541.2441" y="708.9482">MapService</text></g><g class="participant participant-head" data-participant="UserService"><rect fill="#E2E2F0" height="30.2969" rx="2.5" ry="2.5" style="stroke:#181818;stroke-width:0.5;" width="97.6514" x="639.5303" y="50"/><text fill="#000000" font-family="sans-serif" font-size="14" lengthAdjust="spacing" textLength="83.6514" x="646.5303" y="69.9951">UserService</text></g><g class="participant participant-tail" data-participant="UserService"><rect fill="#E2E2F0" height="30.2969" rx="2.5" ry="2.5" style="stroke:#181818;stroke-width:0.5;" width="97.6514" x="639.5303" y="688.9531"/><text fill="#000000" font-family="sans-serif" font-size="14" lengthAdjust="spacing" textLength="83.6514" x="646.5303" y="708.9482">UserService</text></g><g class="participant participant-head" data-participant="EBikeService"><rect fill="#E2E2F0" height="30.2969" rx="2.5" ry="2.5" style="stroke:#181818;stroke-width:0.5;" width="104.8018" x="747.1816" y="50"/><text fill="#000000" font-family="sans-serif" font-size="14" lengthAdjust="spacing" textLength="90.8018" x="754.1816" y="69.9951">EBikeService</text></g><g class="participant participant-tail" data-participant="EBikeService"><rect fill="#E2E2F0" height="30.2969" rx="2.5" ry="2.5" style="stroke:#181818;stroke-width:0.5;" width="104.8018" x="747.1816" y="688.9531"/><text fill="#000000" font-family="sans-serif" font-size="14" lengthAdjust="spacing" textLength="90.8018" x="754.1816" y="708.9482">EBikeService</text></g><rect fill="#EEEEEE" height="3" style="stroke:#EEEEEE;stroke-width:1;" width="918.103" x="0" y="111.8633"/><line style="stroke:#000000;stroke-width:1;" x1="0" x2="918.103" y1="111.8633" y2="111.8633"/><line style="stroke:#000000;stroke-width:1;" x1="0" x2="918.103" y1="114.8633" y2="114.8633"/><rect fill="#EEEEEE" height="23.1328" style="stroke:#000000;stroke-width:2;" width="102.1118" x="407.9956" y="101.2969"/><text fill="#000000" font-family="sans-serif" font-size="13" font-weight="bold" lengthAdjust="spacing" textLength="83.5859" x="413.9956" y="117.3638">Inizio corsa</text><g class="message" data-participant-1="User" data-participant-2="RideService"><polygon fill="#181818" points="137.9048,151.5625,147.9048,155.5625,137.9048,159.5625,141.9048,155.5625" style="stroke:#181818;stroke-width:1;"/><line style="stroke:#181818;stroke-width:1;" x1="23.9551" x2="143.9048" y1="155.5625" y2="155.5625"/><text fill="#000000" font-family="sans-serif" font-size="13" lengthAdjust="spacing" textLength="101.9497" x="30.9551" y="150.4966">POST /startRide</text></g><g class="message" data-participant-1="RideService" data-participant-2="Kafka"><polygon fill="#181818" points="353.896,180.6953,363.896,184.6953,353.896,188.6953,357.896,184.6953" style="stroke:#181818;stroke-width:1;"/><line style="stroke:#181818;stroke-width:1;" x1="149.9048" x2="359.896" y1="184.6953" y2="184.6953"/><text fill="#000000" font-family="sans-serif" font-size="13" lengthAdjust="spacing" textLength="155.2129" x="156.9048" y="179.6294">produce RideStartEvent</text></g><g class="message" data-participant-1="Kafka" data-participant-2="MapService"><polygon fill="#181818" points="569.8872,209.8281,579.8872,213.8281,569.8872,217.8281,573.8872,213.8281" style="stroke:#181818;stroke-width:1;"/><line style="stroke:#181818;stroke-width:1;" x1="365.896" x2="575.8872" y1="213.8281" y2="213.8281"/><text fill="#000000" font-family="sans-serif" font-size="13" lengthAdjust="spacing" textLength="161.04" x="372.896" y="208.7622">consume RideStartEvent</text></g><path d="M586,226.8281 L586,281.8281 L913,281.8281 L913,236.8281 L903,226.8281 L586,226.8281" fill="#FEFFDD" style="stroke:#181818;stroke-width:0.5;"/><path d="M903,226.8281 L903,236.8281 L913,236.8281 L903,226.8281" fill="#FEFFDD" style="stroke:#181818;stroke-width:0.5;"/><text fill="#000000" font-family="sans-serif" font-size="13" lengthAdjust="spacing" textLength="306.103" x="592" y="243.895">Usato da Map per associare l'utente alla e-bike</text><text fill="#000000" font-family="sans-serif" font-size="13" lengthAdjust="spacing" textLength="298.6318" x="592" y="259.0278">e filtrare i EBikeUpdatedEvent per direzionarli</text><text fill="#000000" font-family="sans-serif" font-size="13" lengthAdjust="spacing" textLength="178.5151" x="592" y="274.1606">alla WS dedicata all' utente</text><rect fill="#EEEEEE" height="3" style="stroke:#EEEEEE;stroke-width:1;" width="918.103" x="0" y="307.793"/><line style="stroke:#000000;stroke-width:1;" x1="0" x2="918.103" y1="307.793" y2="307.793"/><line style="stroke:#000000;stroke-width:1;" x1="0" x2="918.103" y1="310.793" y2="310.793"/><rect fill="#EEEEEE" height="23.1328" style="stroke:#000000;stroke-width:2;" width="148.5894" x="384.7568" y="297.2266"/><text fill="#000000" font-family="sans-serif" font-size="13" font-weight="bold" lengthAdjust="spacing" textLength="130.0635" x="390.7568" y="313.2935">Ride Update Loop</text><path d="M91.4756,337.3594 L168.0996,337.3594 L168.0996,344.4922 L158.0996,354.4922 L91.4756,354.4922 L91.4756,337.3594" fill="#EEEEEE" style="stroke:#000000;stroke-width:1.5;"/><rect fill="none" height="335.5938" style="stroke:#000000;stroke-width:1.5;" width="770.5078" x="91.4756" y="337.3594"/><text fill="#000000" font-family="sans-serif" font-size="13" font-weight="bold" lengthAdjust="spacing" textLength="31.624" x="106.4756" y="350.4263">loop</text><text fill="#000000" font-family="sans-serif" font-size="11" font-weight="bold" lengthAdjust="spacing" textLength="112.7393" x="183.0996" y="349.5698">[Durante la corsa]</text><g class="message" data-participant-1="RideService" data-participant-2="Kafka"><polygon fill="#181818" points="353.896,371.625,363.896,375.625,353.896,379.625,357.896,375.625" style="stroke:#181818;stroke-width:1;"/><line style="stroke:#181818;stroke-width:1;" x1="149.9048" x2="359.896" y1="375.625" y2="375.625"/><text fill="#000000" font-family="sans-serif" font-size="13" lengthAdjust="spacing" textLength="170.5361" x="156.9048" y="370.5591">produce RideUpdateEvent</text></g><g class="message" data-participant-1="Kafka" data-participant-2="UserService"><polygon fill="#181818" points="676.356,400.7578,686.356,404.7578,676.356,408.7578,680.356,404.7578" style="stroke:#181818;stroke-width:1;"/><line style="stroke:#181818;stroke-width:1;" x1="365.896" x2="682.356" y1="404.7578" y2="404.7578"/><text fill="#000000" font-family="sans-serif" font-size="13" lengthAdjust="spacing" textLength="176.3633" x="372.896" y="399.6919">consume RideUpdateEvent</text></g><g class="message" data-participant-1="UserService" data-participant-2="Kafka"><polygon fill="#181818" points="376.896,429.8906,366.896,433.8906,376.896,437.8906,372.896,433.8906" style="stroke:#181818;stroke-width:1;"/><line style="stroke:#181818;stroke-width:1;" x1="370.896" x2="687.356" y1="433.8906" y2="433.8906"/><text fill="#000000" font-family="sans-serif" font-size="13" lengthAdjust="spacing" textLength="179.5244" x="382.896" y="428.8247">produce UserUpdatedEvent</text></g><g class="message" data-participant-1="Kafka" data-participant-2="EBikeService"><polygon fill="#181818" points="787.5825,459.0234,797.5825,463.0234,787.5825,467.0234,791.5825,463.0234" style="stroke:#181818;stroke-width:1;"/><line style="stroke:#181818;stroke-width:1;" x1="365.896" x2="793.5825" y1="463.0234" y2="463.0234"/><text fill="#000000" font-family="sans-serif" font-size="13" lengthAdjust="spacing" textLength="176.3633" x="372.896" y="457.9575">consume RideUpdateEvent</text></g><g class="message" data-participant-1="EBikeService" data-participant-2="Kafka"><polygon fill="#181818" points="376.896,488.1563,366.896,492.1563,376.896,496.1563,372.896,492.1563" style="stroke:#181818;stroke-width:1;"/><line style="stroke:#181818;stroke-width:1;" x1="370.896" x2="798.5825" y1="492.1563" y2="492.1563"/><text fill="#000000" font-family="sans-serif" font-size="13" lengthAdjust="spacing" textLength="186.1641" x="382.896" y="487.0903">produce EBikeUpdatedEvent</text></g><g class="message" data-participant-1="Kafka" data-participant-2="RideService"><polygon fill="#181818" points="160.9048,517.2891,150.9048,521.2891,160.9048,525.2891,156.9048,521.2891" style="stroke:#181818;stroke-width:1;"/><line style="stroke:#181818;stroke-width:1;" x1="154.9048" x2="364.896" y1="521.2891" y2="521.2891"/><text fill="#000000" font-family="sans-serif" font-size="13" lengthAdjust="spacing" textLength="185.3516" x="166.9048" y="516.2231">consume UserUpdatedEvent</text></g><g class="message" data-participant-1="Kafka" data-participant-2="RideService"><polygon fill="#181818" points="160.9048,546.4219,150.9048,550.4219,160.9048,554.4219,156.9048,550.4219" style="stroke:#181818;stroke-width:1;"/><line style="stroke:#181818;stroke-width:1;" x1="154.9048" x2="364.896" y1="550.4219" y2="550.4219"/><text fill="#000000" font-family="sans-serif" font-size="13" lengthAdjust="spacing" textLength="191.9912" x="166.9048" y="545.356">consume EBikeUpdatedEvent</text></g><path d="M154,563.4219 L154,603.4219 L420,603.4219 L420,573.4219 L410,563.4219 L154,563.4219" fill="#FEFFDD" style="stroke:#181818;stroke-width:0.5;"/><path d="M410,563.4219 L410,573.4219 L420,573.4219 L410,563.4219" fill="#FEFFDD" style="stroke:#181818;stroke-width:0.5;"/><text fill="#000000" font-family="sans-serif" font-size="13" lengthAdjust="spacing" textLength="245.1973" x="160" y="580.4888">Ride aggiorna la sua projection locale</text><text fill="#000000" font-family="sans-serif" font-size="13" lengthAdjust="spacing" textLength="100.6992" x="160" y="595.6216">su utente e bici</text><g class="message" data-participant-1="Kafka" data-participant-2="MapService"><polygon fill="#181818" points="569.8872,625.8203,579.8872,629.8203,569.8872,633.8203,573.8872,629.8203" style="stroke:#181818;stroke-width:1;"/><line style="stroke:#181818;stroke-width:1;" x1="365.896" x2="575.8872" y1="629.8203" y2="629.8203"/><text fill="#000000" font-family="sans-serif" font-size="13" lengthAdjust="spacing" textLength="191.9912" x="372.896" y="624.7544">consume EBikeUpdatedEvent</text></g><path d="M586,642.8203 L586,667.8203 L837,667.8203 L837,652.8203 L827,642.8203 L586,642.8203" fill="#FEFFDD" style="stroke:#181818;stroke-width:0.5;"/><path d="M827,642.8203 L827,652.8203 L837,652.8203 L827,642.8203" fill="#FEFFDD" style="stroke:#181818;stroke-width:0.5;"/><text fill="#000000" font-family="sans-serif" font-size="13" lengthAdjust="spacing" textLength="230.4072" x="592" y="659.8872">Map aggiorna posizione e stato bici</text><!--SRC=[XLEnJaCn3Dpp5RTrGkn8PK1qG810b8hPJT8IU2HFILu7lXuxhvI4FkWMsMVV-UoGpY5YbMnKFSNijEl9PpmvOvSsxfosJVoMDk_KHEwfdm9Anwduuigz7pgh-Hmttdsw01rY8ipdIaabpYvHQy057X-MppXFcNj9GjLPHXTX3EjZC0E7Ibh0YvtrMQanpy0VlOpMmQVXumZjGxQ8RlkQ4JRrXAj4ES2GnD2pJaefQ4VHefiDcMijgEi8zcpDSogBZUjobBmRHr_rXh8rXQTqC2vQDi1Jx1nKANvPmbZZD6MIRZECdPNr1YAj-2QICNR3NGXzyQwJn_KGIOHmf-AgQgtymwonrTujuE1NjSXVXjKLQ70J59AkPsyuwgFubwG1Jh0SMTpGj0VrpNAax6J5CGlGdapzVKRtGTkj2z6Jh2KD99BVhCwyUNH1KoV0DEnN3Oir_nWE_UoyaZLvmwTLLOUCSi47JNr8yWkz4FCNunl_JS-FBm00]--></g></svg>