<svg xmlns="http://www.w3.org/2000/svg" xmlns:xlink="http://www.w3.org/1999/xlink" contentStyleType="text/css" data-diagram-type="SEQUENCE" height="2369px" preserveAspectRatio="none" style="width:2406px;height:2369px;background:#FFFFFF;" version="1.1" viewBox="0 0 2406 2369" width="2406px" zoomAndPan="magnify"><defs/><g><rect fill="none" height="88.3984" style="stroke:#000000;stroke-width:1.5;" width="368.0425" x="907.0503" y="315.2266"/><rect fill="none" height="104.5313" style="stroke:#000000;stroke-width:1.5;" width="1296.3052" x="489.5098" y="936.75"/><rect fill="none" height="555.1953" style="stroke:#000000;stroke-width:1.5;" width="1785.8149" x="10" y="1098.4141"/><rect fill="none" height="104.5313" style="stroke:#000000;stroke-width:1.5;" width="1296.3052" x="489.5098" y="1222.9453"/><rect fill="none" height="81.3984" style="stroke:#000000;stroke-width:1.5;" width="1482.2646" x="907.0503" y="1752.875"/><rect fill="none" height="423.8594" style="stroke:#000000;stroke-width:1.5;" width="1306.3052" x="479.5098" y="1848.2734"/><rect fill="none" height="75.3984" style="stroke:#000000;stroke-width:1.5;" width="1000.106" x="489.5098" y="1972.8047"/><g><title>Utente</title><rect fill="#000000" fill-opacity="0.00000" height="2207.8359" width="8" x="42.6626" y="81.2969"/><line style="stroke:#181818;stroke-width:0.5;stroke-dasharray:5,5;" x1="46" x2="46" y1="81.2969" y2="2289.1328"/></g><g><title>API REST</title><rect fill="#000000" fill-opacity="0.00000" height="2207.8359" width="8" x="406.8589" y="81.2969"/><line style="stroke:#181818;stroke-width:0.5;stroke-dasharray:5,5;" x1="410.208" x2="410.208" y1="81.2969" y2="2289.1328"/></g><g><title>ABike Microservice</title><rect fill="#000000" fill-opacity="0.00000" height="2207.8359" width="8" x="568.6987" y="81.2969"/><line style="stroke:#181818;stroke-width:0.5;stroke-dasharray:5,5;" x1="572.5098" x2="572.5098" y1="81.2969" y2="2289.1328"/></g><g><title>Kafka</title><rect fill="#000000" fill-opacity="0.00000" height="2207.8359" width="8" x="939.7378" y="81.2969"/><line style="stroke:#181818;stroke-width:0.5;stroke-dasharray:5,5;" x1="943.0503" x2="943.0503" y1="81.2969" y2="2289.1328"/></g><g><title>Station Microservice</title><rect fill="#000000" fill-opacity="0.00000" height="2207.8359" width="8" x="1151.5967" y="81.2969"/><line style="stroke:#181818;stroke-width:0.5;stroke-dasharray:5,5;" x1="1155.4175" x2="1155.4175" y1="81.2969" y2="2289.1328"/></g><g><title>Map Microservice</title><rect fill="#000000" fill-opacity="0.00000" height="2207.8359" width="8" x="1407.5503" y="81.2969"/><line style="stroke:#181818;stroke-width:0.5;stroke-dasharray:5,5;" x1="1411.4849" x2="1411.4849" y1="81.2969" y2="2289.1328"/></g><g><title>User Microservice</title><rect fill="#000000" fill-opacity="0.00000" height="2207.8359" width="8" x="1554.8638" y="81.2969"/><line style="stroke:#181818;stroke-width:0.5;stroke-dasharray:5,5;" x1="1558.6157" x2="1558.6157" y1="81.2969" y2="2289.1328"/></g><g><title>Ride Microservice</title><rect fill="#000000" fill-opacity="0.00000" height="2207.8359" width="8" x="1702.9634" y="81.2969"/><line style="stroke:#181818;stroke-width:0.5;stroke-dasharray:5,5;" x1="1706.1118" x2="1706.1118" y1="81.2969" y2="2289.1328"/></g><g class="participant participant-head" data-participant="Utente"><text fill="#000000" font-family="sans-serif" font-size="14" lengthAdjust="spacing" textLength="47.3252" x="20" y="77.9951">Utente</text><ellipse cx="46.6626" cy="13.5" fill="#E2E2F0" rx="8" ry="8" style="stroke:#181818;stroke-width:0.5;"/><path d="M46.6626,21.5 L46.6626,48.5 M33.6626,29.5 L59.6626,29.5 M46.6626,48.5 L33.6626,63.5 M46.6626,48.5 L59.6626,63.5" fill="none" style="stroke:#181818;stroke-width:0.5;"/></g><g class="participant participant-tail" data-participant="Utente"><text fill="#000000" font-family="sans-serif" font-size="14" lengthAdjust="spacing" textLength="47.3252" x="20" y="2301.1279">Utente</text><ellipse cx="46.6626" cy="2312.9297" fill="#E2E2F0" rx="8" ry="8" style="stroke:#181818;stroke-width:0.5;"/><path d="M46.6626,2320.9297 L46.6626,2347.9297 M33.6626,2328.9297 L59.6626,2328.9297 M46.6626,2347.9297 L33.6626,2362.9297 M46.6626,2347.9297 L59.6626,2362.9297" fill="none" style="stroke:#181818;stroke-width:0.5;"/></g><g class="participant participant-head" data-participant="ABikeAPI"><rect fill="#E2E2F0" height="46.5938" rx="2.5" ry="2.5" style="stroke:#181818;stroke-width:0.5;" width="157.3018" x="332.208" y="33.7031"/><text fill="#000000" font-family="sans-serif" font-size="14" lengthAdjust="spacing" textLength="62.6104" x="379.5537" y="53.6982">API REST</text><text fill="#000000" font-family="sans-serif" font-size="14" lengthAdjust="spacing" textLength="143.3018" x="339.208" y="69.9951">(ABike Microservice)</text></g><g class="participant participant-tail" data-participant="ABikeAPI"><rect fill="#E2E2F0" height="46.5938" rx="2.5" ry="2.5" style="stroke:#181818;stroke-width:0.5;" width="157.3018" x="332.208" y="2288.1328"/><text fill="#000000" font-family="sans-serif" font-size="14" lengthAdjust="spacing" textLength="62.6104" x="379.5537" y="2308.1279">API REST</text><text fill="#000000" font-family="sans-serif" font-size="14" lengthAdjust="spacing" textLength="143.3018" x="339.208" y="2324.4248">(ABike Microservice)</text></g><g class="participant participant-head" data-participant="ABikeMS"><rect fill="#E2E2F0" height="30.2969" rx="2.5" ry="2.5" style="stroke:#181818;stroke-width:0.5;" width="146.3779" x="499.5098" y="50"/><text fill="#000000" font-family="sans-serif" font-size="14" lengthAdjust="spacing" textLength="132.3779" x="506.5098" y="69.9951">ABike Microservice</text></g><g class="participant participant-tail" data-participant="ABikeMS"><rect fill="#E2E2F0" height="30.2969" rx="2.5" ry="2.5" style="stroke:#181818;stroke-width:0.5;" width="146.3779" x="499.5098" y="2288.1328"/><text fill="#000000" font-family="sans-serif" font-size="14" lengthAdjust="spacing" textLength="132.3779" x="506.5098" y="2308.1279">ABike Microservice</text></g><g class="participant participant-head" data-participant="Kafka"><rect fill="#E2E2F0" height="30.2969" rx="2.5" ry="2.5" style="stroke:#181818;stroke-width:0.5;" width="53.375" x="917.0503" y="50"/><text fill="#000000" font-family="sans-serif" font-size="14" lengthAdjust="spacing" textLength="39.375" x="924.0503" y="69.9951">Kafka</text></g><g class="participant participant-tail" data-participant="Kafka"><rect fill="#E2E2F0" height="30.2969" rx="2.5" ry="2.5" style="stroke:#181818;stroke-width:0.5;" width="53.375" x="917.0503" y="2288.1328"/><text fill="#000000" font-family="sans-serif" font-size="14" lengthAdjust="spacing" textLength="39.375" x="924.0503" y="2308.1279">Kafka</text></g><g class="participant participant-head" data-participant="StationMS"><rect fill="#E2E2F0" height="30.2969" rx="2.5" ry="2.5" style="stroke:#181818;stroke-width:0.5;" width="156.3584" x="1077.4175" y="50"/><text fill="#000000" font-family="sans-serif" font-size="14" lengthAdjust="spacing" textLength="142.3584" x="1084.4175" y="69.9951">Station Microservice</text></g><g class="participant participant-tail" data-participant="StationMS"><rect fill="#E2E2F0" height="30.2969" rx="2.5" ry="2.5" style="stroke:#181818;stroke-width:0.5;" width="156.3584" x="1077.4175" y="2288.1328"/><text fill="#000000" font-family="sans-serif" font-size="14" lengthAdjust="spacing" textLength="142.3584" x="1084.4175" y="2308.1279">Station Microservice</text></g><g class="participant participant-head" data-participant="MapMS"><rect fill="#E2E2F0" height="30.2969" rx="2.5" ry="2.5" style="stroke:#181818;stroke-width:0.5;" width="136.1309" x="1343.4849" y="50"/><text fill="#000000" font-family="sans-serif" font-size="14" lengthAdjust="spacing" textLength="122.1309" x="1350.4849" y="69.9951">Map Microservice</text></g><g class="participant participant-tail" data-participant="MapMS"><rect fill="#E2E2F0" height="30.2969" rx="2.5" ry="2.5" style="stroke:#181818;stroke-width:0.5;" width="136.1309" x="1343.4849" y="2288.1328"/><text fill="#000000" font-family="sans-serif" font-size="14" lengthAdjust="spacing" textLength="122.1309" x="1350.4849" y="2308.1279">Map Microservice</text></g><g class="participant participant-head" data-participant="UserMS"><rect fill="#E2E2F0" height="30.2969" rx="2.5" ry="2.5" style="stroke:#181818;stroke-width:0.5;" width="138.4961" x="1489.6157" y="50"/><text fill="#000000" font-family="sans-serif" font-size="14" lengthAdjust="spacing" textLength="124.4961" x="1496.6157" y="69.9951">User Microservice</text></g><g class="participant participant-tail" data-participant="UserMS"><rect fill="#E2E2F0" height="30.2969" rx="2.5" ry="2.5" style="stroke:#181818;stroke-width:0.5;" width="138.4961" x="1489.6157" y="2288.1328"/><text fill="#000000" font-family="sans-serif" font-size="14" lengthAdjust="spacing" textLength="124.4961" x="1496.6157" y="2308.1279">User Microservice</text></g><g class="participant participant-head" data-participant="RideMS"><rect fill="#E2E2F0" height="30.2969" rx="2.5" ry="2.5" style="stroke:#181818;stroke-width:0.5;" width="137.7031" x="1638.1118" y="50"/><text fill="#000000" font-family="sans-serif" font-size="14" lengthAdjust="spacing" textLength="123.7031" x="1645.1118" y="69.9951">Ride Microservice</text></g><g class="participant participant-tail" data-participant="RideMS"><rect fill="#E2E2F0" height="30.2969" rx="2.5" ry="2.5" style="stroke:#181818;stroke-width:0.5;" width="137.7031" x="1638.1118" y="2288.1328"/><text fill="#000000" font-family="sans-serif" font-size="14" lengthAdjust="spacing" textLength="123.7031" x="1645.1118" y="2308.1279">Ride Microservice</text></g><rect fill="#EEEEEE" height="3" style="stroke:#EEEEEE;stroke-width:1;" width="2399.3149" x="0" y="111.8633"/><line style="stroke:#000000;stroke-width:1;" x1="0" x2="2399.3149" y1="111.8633" y2="111.8633"/><line style="stroke:#000000;stroke-width:1;" x1="0" x2="2399.3149" y1="114.8633" y2="114.8633"/><rect fill="#EEEEEE" height="23.1328" style="stroke:#000000;stroke-width:2;" width="142.9019" x="1128.2065" y="101.2969"/><text fill="#000000" font-family="sans-serif" font-size="13" font-weight="bold" lengthAdjust="spacing" textLength="124.376" x="1134.2065" y="117.3638">Creazione A-Bike</text><g class="message" data-participant-1="Utente" data-participant-2="ABikeAPI"><polygon fill="#181818" points="398.8589,151.5625,408.8589,155.5625,398.8589,159.5625,402.8589,155.5625" style="stroke:#181818;stroke-width:1;"/><line style="stroke:#181818;stroke-width:1;" x1="46.6626" x2="404.8589" y1="155.5625" y2="155.5625"/><text fill="#000000" font-family="sans-serif" font-size="13" lengthAdjust="spacing" textLength="340.1963" x="53.6626" y="150.4966">Richiesta creazione a-bike (POST /api/abikes/create)</text></g><g class="message" data-participant-1="ABikeAPI" data-participant-2="ABikeMS"><polygon fill="#181818" points="560.6987,180.6953,570.6987,184.6953,560.6987,188.6953,564.6987,184.6953" style="stroke:#181818;stroke-width:1;"/><line style="stroke:#181818;stroke-width:1;" x1="410.8589" x2="566.6987" y1="184.6953" y2="184.6953"/><text fill="#000000" font-family="sans-serif" font-size="13" lengthAdjust="spacing" textLength="88.645" x="417.8589" y="179.6294">createABike()</text></g><g class="message" data-participant-1="ABikeMS" data-participant-2="Kafka"><polygon fill="#181818" points="931.7378,209.8281,941.7378,213.8281,931.7378,217.8281,935.7378,213.8281" style="stroke:#181818;stroke-width:1;"/><line style="stroke:#181818;stroke-width:1;" x1="572.6987" x2="937.7378" y1="213.8281" y2="213.8281"/><text fill="#000000" font-family="sans-serif" font-size="13" lengthAdjust="spacing" textLength="203.5186" x="579.6987" y="208.7622">produce ABikeArrivedToStation</text></g><g class="message" data-participant-1="Kafka" data-participant-2="StationMS"><polygon fill="#181818" points="1143.5967,238.9609,1153.5967,242.9609,1143.5967,246.9609,1147.5967,242.9609" style="stroke:#181818;stroke-width:1;"/><line style="stroke:#181818;stroke-width:1;" x1="943.7378" x2="1149.5967" y1="242.9609" y2="242.9609"/><text fill="#000000" font-family="sans-serif" font-size="13" lengthAdjust="spacing" textLength="187.3574" x="950.7378" y="237.895">ABikeArrivedToStation event</text></g><g class="message" data-participant-1="StationMS" data-participant-2="StationMS"><line style="stroke:#181818;stroke-width:1;" x1="1155.5967" x2="1197.5967" y1="287.2266" y2="287.2266"/><line style="stroke:#181818;stroke-width:1;" x1="1197.5967" x2="1197.5967" y1="287.2266" y2="300.2266"/><line style="stroke:#181818;stroke-width:1;" x1="1156.5967" x2="1197.5967" y1="300.2266" y2="300.2266"/><polygon fill="#181818" points="1166.5967,296.2266,1156.5967,300.2266,1166.5967,304.2266,1162.5967,300.2266" style="stroke:#181818;stroke-width:1;"/><text fill="#000000" font-family="sans-serif" font-size="13" lengthAdjust="spacing" textLength="89.1719" x="1162.5967" y="267.0278">Valida station</text><text fill="#000000" font-family="sans-serif" font-size="13" lengthAdjust="spacing" textLength="180.4258" x="1162.5967" y="282.1606">(dalla sua projection locale)</text></g><path d="M907.0503,315.2266 L971.4932,315.2266 L971.4932,322.3594 L961.4932,332.3594 L907.0503,332.3594 L907.0503,315.2266" fill="#EEEEEE" style="stroke:#000000;stroke-width:1.5;"/><rect fill="none" height="88.3984" style="stroke:#000000;stroke-width:1.5;" width="368.0425" x="907.0503" y="315.2266"/><text fill="#000000" font-family="sans-serif" font-size="13" font-weight="bold" lengthAdjust="spacing" textLength="19.4429" x="922.0503" y="328.2935">alt</text><text fill="#000000" font-family="sans-serif" font-size="11" font-weight="bold" lengthAdjust="spacing" textLength="176.9561" x="986.4932" y="327.437">[stazione esiste e ha spazio]</text><g class="message" data-participant-1="StationMS" data-participant-2="StationMS"><line style="stroke:#181818;stroke-width:1;" x1="1155.5967" x2="1197.5967" y1="353.4922" y2="353.4922"/><line style="stroke:#181818;stroke-width:1;" x1="1197.5967" x2="1197.5967" y1="353.4922" y2="366.4922"/><line style="stroke:#181818;stroke-width:1;" x1="1156.5967" x2="1197.5967" y1="366.4922" y2="366.4922"/><polygon fill="#181818" points="1166.5967,362.4922,1156.5967,366.4922,1166.5967,370.4922,1162.5967,366.4922" style="stroke:#181818;stroke-width:1;"/><text fill="#000000" font-family="sans-serif" font-size="13" lengthAdjust="spacing" textLength="100.4961" x="1162.5967" y="348.4263">Docka la a-bike</text></g><g class="message" data-participant-1="StationMS" data-participant-2="Kafka"><polygon fill="#181818" points="954.7378,391.625,944.7378,395.625,954.7378,399.625,950.7378,395.625" style="stroke:#181818;stroke-width:1;"/><line style="stroke:#181818;stroke-width:1;" x1="948.7378" x2="1154.5967" y1="395.625" y2="395.625"/><text fill="#000000" font-family="sans-serif" font-size="13" lengthAdjust="spacing" textLength="187.8589" x="960.7378" y="390.5591">produce StationUpdateEvent</text></g><g class="message" data-participant-1="Kafka" data-participant-2="ABikeMS"><polygon fill="#181818" points="583.6987,427.7578,573.6987,431.7578,583.6987,435.7578,579.6987,431.7578" style="stroke:#181818;stroke-width:1;"/><line style="stroke:#181818;stroke-width:1;" x1="577.6987" x2="942.7378" y1="431.7578" y2="431.7578"/><text fill="#000000" font-family="sans-serif" font-size="13" lengthAdjust="spacing" textLength="325.9521" x="589.6987" y="426.6919">StationUpdateEvent (aggiorna projection stazioni)</text></g><rect fill="#EEEEEE" height="3" style="stroke:#EEEEEE;stroke-width:1;" width="2399.3149" x="0" y="460.3242"/><line style="stroke:#000000;stroke-width:1;" x1="0" x2="2399.3149" y1="460.3242" y2="460.3242"/><line style="stroke:#000000;stroke-width:1;" x1="0" x2="2399.3149" y1="463.3242" y2="463.3242"/><rect fill="#EEEEEE" height="23.1328" style="stroke:#000000;stroke-width:2;" width="257.5088" x="1070.9031" y="449.7578"/><text fill="#000000" font-family="sans-serif" font-size="13" font-weight="bold" lengthAdjust="spacing" textLength="238.9829" x="1076.9031" y="465.8247">Richiesta A-Bike da parte utente</text><g class="message" data-participant-1="Utente" data-participant-2="ABikeAPI"><polygon fill="#181818" points="398.8589,500.0234,408.8589,504.0234,398.8589,508.0234,402.8589,504.0234" style="stroke:#181818;stroke-width:1;"/><line style="stroke:#181818;stroke-width:1;" x1="46.6626" x2="404.8589" y1="504.0234" y2="504.0234"/><text fill="#000000" font-family="sans-serif" font-size="13" lengthAdjust="spacing" textLength="246.6509" x="53.6626" y="498.9575">Chiamata a-bike (POST /api/callAbike)</text></g><g class="message" data-participant-1="ABikeAPI" data-participant-2="ABikeMS"><polygon fill="#181818" points="560.6987,529.1563,570.6987,533.1563,560.6987,537.1563,564.6987,533.1563" style="stroke:#181818;stroke-width:1;"/><line style="stroke:#181818;stroke-width:1;" x1="410.8589" x2="566.6987" y1="533.1563" y2="533.1563"/><text fill="#000000" font-family="sans-serif" font-size="13" lengthAdjust="spacing" textLength="69.4307" x="417.8589" y="528.0903">callABike()</text></g><g class="message" data-participant-1="ABikeMS" data-participant-2="ABikeMS"><line style="stroke:#181818;stroke-width:1;" x1="572.6987" x2="614.6987" y1="577.4219" y2="577.4219"/><line style="stroke:#181818;stroke-width:1;" x1="614.6987" x2="614.6987" y1="577.4219" y2="590.4219"/><line style="stroke:#181818;stroke-width:1;" x1="573.6987" x2="614.6987" y1="590.4219" y2="590.4219"/><polygon fill="#181818" points="583.6987,586.4219,573.6987,590.4219,583.6987,594.4219,579.6987,590.4219" style="stroke:#181818;stroke-width:1;"/><text fill="#000000" font-family="sans-serif" font-size="13" lengthAdjust="spacing" textLength="162.1318" x="579.6987" y="557.2231">Trova stazione pi&#249; vicina</text><text fill="#000000" font-family="sans-serif" font-size="13" lengthAdjust="spacing" textLength="170.3013" x="579.6987" y="572.356">nella sua projection locale</text></g><g class="message" data-participant-1="ABikeMS" data-participant-2="Kafka"><polygon fill="#181818" points="931.7378,615.5547,941.7378,619.5547,931.7378,623.5547,935.7378,619.5547" style="stroke:#181818;stroke-width:1;"/><line style="stroke:#181818;stroke-width:1;" x1="572.6987" x2="937.7378" y1="619.5547" y2="619.5547"/><text fill="#000000" font-family="sans-serif" font-size="13" lengthAdjust="spacing" textLength="163.9092" x="579.6987" y="614.4888">produce ABikeRequested</text></g><g class="message" data-participant-1="Kafka" data-participant-2="MapMS"><polygon fill="#181818" points="1399.5503,644.6875,1409.5503,648.6875,1399.5503,652.6875,1403.5503,648.6875" style="stroke:#181818;stroke-width:1;"/><line style="stroke:#181818;stroke-width:1;" x1="943.7378" x2="1405.5503" y1="648.6875" y2="648.6875"/><text fill="#000000" font-family="sans-serif" font-size="13" lengthAdjust="spacing" textLength="413.6704" x="950.7378" y="643.6216">ABikeRequested (per abilitare visualizzazione/binding a utente)</text></g><g class="message" data-participant-1="Kafka" data-participant-2="StationMS"><polygon fill="#181818" points="1143.5967,673.8203,1153.5967,677.8203,1143.5967,681.8203,1147.5967,677.8203" style="stroke:#181818;stroke-width:1;"/><line style="stroke:#181818;stroke-width:1;" x1="943.7378" x2="1149.5967" y1="677.8203" y2="677.8203"/><text fill="#000000" font-family="sans-serif" font-size="13" lengthAdjust="spacing" textLength="106.5898" x="950.7378" y="672.7544">ABikeRequested</text></g><g class="message" data-participant-1="StationMS" data-participant-2="StationMS"><line style="stroke:#181818;stroke-width:1;" x1="1155.5967" x2="1197.5967" y1="706.9531" y2="706.9531"/><line style="stroke:#181818;stroke-width:1;" x1="1197.5967" x2="1197.5967" y1="706.9531" y2="719.9531"/><line style="stroke:#181818;stroke-width:1;" x1="1156.5967" x2="1197.5967" y1="719.9531" y2="719.9531"/><polygon fill="#181818" points="1166.5967,715.9531,1156.5967,719.9531,1166.5967,723.9531,1162.5967,719.9531" style="stroke:#181818;stroke-width:1;"/><text fill="#000000" font-family="sans-serif" font-size="13" lengthAdjust="spacing" textLength="241.9536" x="1162.5967" y="701.8872">Rimuove a-bike da stazione (undock)</text></g><g class="message" data-participant-1="StationMS" data-participant-2="Kafka"><polygon fill="#181818" points="954.7378,745.0859,944.7378,749.0859,954.7378,753.0859,950.7378,749.0859" style="stroke:#181818;stroke-width:1;"/><line style="stroke:#181818;stroke-width:1;" x1="948.7378" x2="1154.5967" y1="749.0859" y2="749.0859"/><text fill="#000000" font-family="sans-serif" font-size="13" lengthAdjust="spacing" textLength="187.8589" x="960.7378" y="744.02">produce StationUpdateEvent</text></g><g class="message" data-participant-1="Kafka" data-participant-2="ABikeMS"><polygon fill="#181818" points="583.6987,774.2188,573.6987,778.2188,583.6987,782.2188,579.6987,778.2188" style="stroke:#181818;stroke-width:1;"/><line style="stroke:#181818;stroke-width:1;" x1="577.6987" x2="942.7378" y1="778.2188" y2="778.2188"/><text fill="#000000" font-family="sans-serif" font-size="13" lengthAdjust="spacing" textLength="325.9521" x="589.6987" y="773.1528">StationUpdateEvent (aggiorna projection stazioni)</text></g><g class="message" data-participant-1="ABikeMS" data-participant-2="Kafka"><polygon fill="#181818" points="931.7378,803.3516,941.7378,807.3516,931.7378,811.3516,935.7378,807.3516" style="stroke:#181818;stroke-width:1;"/><line style="stroke:#181818;stroke-width:1;" x1="572.6987" x2="937.7378" y1="807.3516" y2="807.3516"/><text fill="#000000" font-family="sans-serif" font-size="13" lengthAdjust="spacing" textLength="155.1113" x="579.6987" y="802.2856">produce CallAbikeEvent</text></g><g class="message" data-participant-1="Kafka" data-participant-2="UserMS"><polygon fill="#181818" points="1546.8638,832.4844,1556.8638,836.4844,1546.8638,840.4844,1550.8638,836.4844" style="stroke:#181818;stroke-width:1;"/><line style="stroke:#181818;stroke-width:1;" x1="943.7378" x2="1552.8638" y1="836.4844" y2="836.4844"/><text fill="#000000" font-family="sans-serif" font-size="13" lengthAdjust="spacing" textLength="372.1885" x="950.7378" y="831.4185">CallAbikeEvent (UserMS aggiorna lo stato/credito utente)</text></g><rect fill="#EEEEEE" height="3" style="stroke:#EEEEEE;stroke-width:1;" width="2399.3149" x="0" y="865.0508"/><line style="stroke:#000000;stroke-width:1;" x1="0" x2="2399.3149" y1="865.0508" y2="865.0508"/><line style="stroke:#000000;stroke-width:1;" x1="0" x2="2399.3149" y1="868.0508" y2="868.0508"/><rect fill="#EEEEEE" height="23.1328" style="stroke:#000000;stroke-width:2;" width="292.0908" x="1053.6121" y="854.4844"/><text fill="#000000" font-family="sans-serif" font-size="13" font-weight="bold" lengthAdjust="spacing" textLength="273.5649" x="1059.6121" y="870.5513">Simulazione movimento verso utente</text><g class="message" data-participant-1="ABikeMS" data-participant-2="ABikeMS"><line style="stroke:#181818;stroke-width:1;" x1="572.6987" x2="614.6987" y1="908.75" y2="908.75"/><line style="stroke:#181818;stroke-width:1;" x1="614.6987" x2="614.6987" y1="908.75" y2="921.75"/><line style="stroke:#181818;stroke-width:1;" x1="573.6987" x2="614.6987" y1="921.75" y2="921.75"/><polygon fill="#181818" points="583.6987,917.75,573.6987,921.75,583.6987,925.75,579.6987,921.75" style="stroke:#181818;stroke-width:1;"/><text fill="#000000" font-family="sans-serif" font-size="13" lengthAdjust="spacing" textLength="279.0112" x="579.6987" y="903.6841">Avvia simulazione movimento (Simulation)</text></g><path d="M489.5098,936.75 L566.1338,936.75 L566.1338,943.8828 L556.1338,953.8828 L489.5098,953.8828 L489.5098,936.75" fill="#EEEEEE" style="stroke:#000000;stroke-width:1.5;"/><rect fill="none" height="104.5313" style="stroke:#000000;stroke-width:1.5;" width="1296.3052" x="489.5098" y="936.75"/><text fill="#000000" font-family="sans-serif" font-size="13" font-weight="bold" lengthAdjust="spacing" textLength="31.624" x="504.5098" y="949.8169">loop</text><text fill="#000000" font-family="sans-serif" font-size="11" font-weight="bold" lengthAdjust="spacing" textLength="63.7817" x="581.1338" y="948.9604">[ogni tick]</text><g class="message" data-participant-1="ABikeMS" data-participant-2="Kafka"><polygon fill="#181818" points="931.7378,971.0156,941.7378,975.0156,931.7378,979.0156,935.7378,975.0156" style="stroke:#181818;stroke-width:1;"/><line style="stroke:#181818;stroke-width:1;" x1="572.6987" x2="937.7378" y1="975.0156" y2="975.0156"/><text fill="#000000" font-family="sans-serif" font-size="13" lengthAdjust="spacing" textLength="141.3496" x="579.6987" y="969.9497">produce ABikeUpdate</text></g><g class="message" data-participant-1="Kafka" data-participant-2="RideMS"><polygon fill="#181818" points="1694.9634,1000.1484,1704.9634,1004.1484,1694.9634,1008.1484,1698.9634,1004.1484" style="stroke:#181818;stroke-width:1;"/><line style="stroke:#181818;stroke-width:1;" x1="943.7378" x2="1700.9634" y1="1004.1484" y2="1004.1484"/><text fill="#000000" font-family="sans-serif" font-size="13" lengthAdjust="spacing" textLength="254.5728" x="950.7378" y="999.0825">ABikeUpdate (aggiorna projection ride)</text></g><g class="message" data-participant-1="Kafka" data-participant-2="MapMS"><polygon fill="#181818" points="1399.5503,1029.2813,1409.5503,1033.2813,1399.5503,1037.2813,1403.5503,1033.2813" style="stroke:#181818;stroke-width:1;"/><line style="stroke:#181818;stroke-width:1;" x1="943.7378" x2="1405.5503" y1="1033.2813" y2="1033.2813"/><text fill="#000000" font-family="sans-serif" font-size="13" lengthAdjust="spacing" textLength="289.6182" x="950.7378" y="1028.2153">ABikeUpdate (aggiorna posizione su mappa)</text></g><rect fill="#EEEEEE" height="3" style="stroke:#EEEEEE;stroke-width:1;" width="2399.3149" x="0" y="1068.8477"/><line style="stroke:#000000;stroke-width:1;" x1="0" x2="2399.3149" y1="1068.8477" y2="1068.8477"/><line style="stroke:#000000;stroke-width:1;" x1="0" x2="2399.3149" y1="1071.8477" y2="1071.8477"/><rect fill="#EEEEEE" height="23.1328" style="stroke:#000000;stroke-width:2;" width="308.8994" x="1045.2078" y="1058.2813"/><text fill="#000000" font-family="sans-serif" font-size="13" font-weight="bold" lengthAdjust="spacing" textLength="290.3735" x="1051.2078" y="1074.3481">Annullamento richiesta da parte utente</text><path d="M10,1098.4141 L74.4429,1098.4141 L74.4429,1105.5469 L64.4429,1115.5469 L10,1115.5469 L10,1098.4141" fill="#EEEEEE" style="stroke:#000000;stroke-width:1.5;"/><rect fill="none" height="555.1953" style="stroke:#000000;stroke-width:1.5;" width="1785.8149" x="10" y="1098.4141"/><text fill="#000000" font-family="sans-serif" font-size="13" font-weight="bold" lengthAdjust="spacing" textLength="19.4429" x="25" y="1111.481">alt</text><text fill="#000000" font-family="sans-serif" font-size="11" font-weight="bold" lengthAdjust="spacing" textLength="159.8008" x="89.4429" y="1110.6245">[Utente annulla richiesta]</text><g class="message" data-participant-1="Utente" data-participant-2="ABikeAPI"><polygon fill="#181818" points="398.8589,1132.6797,408.8589,1136.6797,398.8589,1140.6797,402.8589,1136.6797" style="stroke:#181818;stroke-width:1;"/><line style="stroke:#181818;stroke-width:1;" x1="46.6626" x2="404.8589" y1="1136.6797" y2="1136.6797"/><text fill="#000000" font-family="sans-serif" font-size="13" lengthAdjust="spacing" textLength="133.3643" x="53.6626" y="1131.6138">POST /api/cancelCall</text></g><g class="message" data-participant-1="ABikeAPI" data-participant-2="ABikeMS"><polygon fill="#181818" points="560.6987,1161.8125,570.6987,1165.8125,560.6987,1169.8125,564.6987,1165.8125" style="stroke:#181818;stroke-width:1;"/><line style="stroke:#181818;stroke-width:1;" x1="410.8589" x2="566.6987" y1="1165.8125" y2="1165.8125"/><text fill="#000000" font-family="sans-serif" font-size="13" lengthAdjust="spacing" textLength="80.1328" x="417.8589" y="1160.7466">cancellCall()</text></g><g class="message" data-participant-1="ABikeMS" data-participant-2="ABikeMS"><line style="stroke:#181818;stroke-width:1;" x1="572.6987" x2="614.6987" y1="1194.9453" y2="1194.9453"/><line style="stroke:#181818;stroke-width:1;" x1="614.6987" x2="614.6987" y1="1194.9453" y2="1207.9453"/><line style="stroke:#181818;stroke-width:1;" x1="573.6987" x2="614.6987" y1="1207.9453" y2="1207.9453"/><polygon fill="#181818" points="583.6987,1203.9453,573.6987,1207.9453,583.6987,1211.9453,579.6987,1207.9453" style="stroke:#181818;stroke-width:1;"/><text fill="#000000" font-family="sans-serif" font-size="13" lengthAdjust="spacing" textLength="284.6416" x="579.6987" y="1189.8794">Ferma simulazione, avvia ritorno a stazione</text></g><path d="M489.5098,1222.9453 L566.1338,1222.9453 L566.1338,1230.0781 L556.1338,1240.0781 L489.5098,1240.0781 L489.5098,1222.9453" fill="#EEEEEE" style="stroke:#000000;stroke-width:1.5;"/><rect fill="none" height="104.5313" style="stroke:#000000;stroke-width:1.5;" width="1296.3052" x="489.5098" y="1222.9453"/><text fill="#000000" font-family="sans-serif" font-size="13" font-weight="bold" lengthAdjust="spacing" textLength="31.624" x="504.5098" y="1236.0122">loop</text><text fill="#000000" font-family="sans-serif" font-size="11" font-weight="bold" lengthAdjust="spacing" textLength="63.7817" x="581.1338" y="1235.1558">[ogni tick]</text><g class="message" data-participant-1="ABikeMS" data-participant-2="Kafka"><polygon fill="#181818" points="931.7378,1257.2109,941.7378,1261.2109,931.7378,1265.2109,935.7378,1261.2109" style="stroke:#181818;stroke-width:1;"/><line style="stroke:#181818;stroke-width:1;" x1="572.6987" x2="937.7378" y1="1261.2109" y2="1261.2109"/><text fill="#000000" font-family="sans-serif" font-size="13" lengthAdjust="spacing" textLength="141.3496" x="579.6987" y="1256.145">produce ABikeUpdate</text></g><g class="message" data-participant-1="Kafka" data-participant-2="RideMS"><polygon fill="#181818" points="1694.9634,1286.3438,1704.9634,1290.3438,1694.9634,1294.3438,1698.9634,1290.3438" style="stroke:#181818;stroke-width:1;"/><line style="stroke:#181818;stroke-width:1;" x1="943.7378" x2="1700.9634" y1="1290.3438" y2="1290.3438"/><text fill="#000000" font-family="sans-serif" font-size="13" lengthAdjust="spacing" textLength="225.2339" x="950.7378" y="1285.2778">ABikeUpdate (aggiorna projection)</text></g><g class="message" data-participant-1="Kafka" data-participant-2="MapMS"><polygon fill="#181818" points="1399.5503,1315.4766,1409.5503,1319.4766,1399.5503,1323.4766,1403.5503,1319.4766" style="stroke:#181818;stroke-width:1;"/><line style="stroke:#181818;stroke-width:1;" x1="943.7378" x2="1405.5503" y1="1319.4766" y2="1319.4766"/><text fill="#000000" font-family="sans-serif" font-size="13" lengthAdjust="spacing" textLength="205.1245" x="950.7378" y="1314.4106">ABikeUpdate (aggiorna mappa)</text></g><g class="message" data-participant-1="ABikeMS" data-participant-2="Kafka"><polygon fill="#181818" points="931.7378,1351.6094,941.7378,1355.6094,931.7378,1359.6094,935.7378,1355.6094" style="stroke:#181818;stroke-width:1;"/><line style="stroke:#181818;stroke-width:1;" x1="572.6987" x2="937.7378" y1="1355.6094" y2="1355.6094"/><text fill="#000000" font-family="sans-serif" font-size="13" lengthAdjust="spacing" textLength="181.1875" x="579.6987" y="1350.5435">produce ABikeCallComplete</text></g><g class="message" data-participant-1="Kafka" data-participant-2="MapMS"><polygon fill="#181818" points="1399.5503,1380.7422,1409.5503,1384.7422,1399.5503,1388.7422,1403.5503,1384.7422" style="stroke:#181818;stroke-width:1;"/><line style="stroke:#181818;stroke-width:1;" x1="943.7378" x2="1405.5503" y1="1384.7422" y2="1384.7422"/><text fill="#000000" font-family="sans-serif" font-size="13" lengthAdjust="spacing" textLength="291.8208" x="950.7378" y="1379.6763">ABikeCallComplete (disassocia abike-utente)</text></g><g class="message" data-participant-1="ABikeMS" data-participant-2="Kafka"><polygon fill="#181818" points="931.7378,1409.875,941.7378,1413.875,931.7378,1417.875,935.7378,1413.875" style="stroke:#181818;stroke-width:1;"/><line style="stroke:#181818;stroke-width:1;" x1="572.6987" x2="937.7378" y1="1413.875" y2="1413.875"/><text fill="#000000" font-family="sans-serif" font-size="13" lengthAdjust="spacing" textLength="203.5186" x="579.6987" y="1408.8091">produce ABikeArrivedToStation</text></g><g class="message" data-participant-1="Kafka" data-participant-2="StationMS"><polygon fill="#181818" points="1143.5967,1439.0078,1153.5967,1443.0078,1143.5967,1447.0078,1147.5967,1443.0078" style="stroke:#181818;stroke-width:1;"/><line style="stroke:#181818;stroke-width:1;" x1="943.7378" x2="1149.5967" y1="1443.0078" y2="1443.0078"/><text fill="#000000" font-family="sans-serif" font-size="13" lengthAdjust="spacing" textLength="146.1992" x="950.7378" y="1437.9419">ABikeArrivedToStation</text></g><g class="message" data-participant-1="StationMS" data-participant-2="StationMS"><line style="stroke:#181818;stroke-width:1;" x1="1155.5967" x2="1197.5967" y1="1472.1406" y2="1472.1406"/><line style="stroke:#181818;stroke-width:1;" x1="1197.5967" x2="1197.5967" y1="1472.1406" y2="1485.1406"/><line style="stroke:#181818;stroke-width:1;" x1="1156.5967" x2="1197.5967" y1="1485.1406" y2="1485.1406"/><polygon fill="#181818" points="1166.5967,1481.1406,1156.5967,1485.1406,1166.5967,1489.1406,1162.5967,1485.1406" style="stroke:#181818;stroke-width:1;"/><text fill="#000000" font-family="sans-serif" font-size="13" lengthAdjust="spacing" textLength="84.7856" x="1162.5967" y="1467.0747">Docka a-bike</text></g><g class="message" data-participant-1="StationMS" data-participant-2="Kafka"><polygon fill="#181818" points="954.7378,1510.2734,944.7378,1514.2734,954.7378,1518.2734,950.7378,1514.2734" style="stroke:#181818;stroke-width:1;"/><line style="stroke:#181818;stroke-width:1;" x1="948.7378" x2="1154.5967" y1="1514.2734" y2="1514.2734"/><text fill="#000000" font-family="sans-serif" font-size="13" lengthAdjust="spacing" textLength="187.8589" x="960.7378" y="1509.2075">produce StationUpdateEvent</text></g><g class="message" data-participant-1="Kafka" data-participant-2="ABikeMS"><polygon fill="#181818" points="583.6987,1539.4063,573.6987,1543.4063,583.6987,1547.4063,579.6987,1543.4063" style="stroke:#181818;stroke-width:1;"/><line style="stroke:#181818;stroke-width:1;" x1="577.6987" x2="942.7378" y1="1543.4063" y2="1543.4063"/><text fill="#000000" font-family="sans-serif" font-size="13" lengthAdjust="spacing" textLength="271.7432" x="589.6987" y="1538.3403">StationUpdateEvent (aggiorna projection)</text></g><line style="stroke:#000000;stroke-width:1;stroke-dasharray:2,2;" x1="10" x2="1795.8149" y1="1552.4063" y2="1552.4063"/><text fill="#000000" font-family="sans-serif" font-size="11" font-weight="bold" lengthAdjust="spacing" textLength="161.9653" x="15" y="1562.6167">[A-bike arriva dall&#8217;utente]</text><g class="message" data-participant-1="ABikeMS" data-participant-2="Kafka"><polygon fill="#181818" points="931.7378,1583.3438,941.7378,1587.3438,931.7378,1591.3438,935.7378,1587.3438" style="stroke:#181818;stroke-width:1;"/><line style="stroke:#181818;stroke-width:1;" x1="572.6987" x2="937.7378" y1="1587.3438" y2="1587.3438"/><text fill="#000000" font-family="sans-serif" font-size="13" lengthAdjust="spacing" textLength="186.9321" x="579.6987" y="1582.2778">produce ABikeArrivedToUser</text></g><g class="message" data-participant-1="Kafka" data-participant-2="MapMS"><polygon fill="#181818" points="1399.5503,1612.4766,1409.5503,1616.4766,1399.5503,1620.4766,1403.5503,1616.4766" style="stroke:#181818;stroke-width:1;"/><line style="stroke:#181818;stroke-width:1;" x1="943.7378" x2="1405.5503" y1="1616.4766" y2="1616.4766"/><text fill="#000000" font-family="sans-serif" font-size="13" lengthAdjust="spacing" textLength="250.707" x="950.7378" y="1611.4106">ABikeArrivedToUser (aggiorna mappa)</text></g><g class="message" data-participant-1="Kafka" data-participant-2="RideMS"><polygon fill="#181818" points="1694.9634,1641.6094,1704.9634,1645.6094,1694.9634,1649.6094,1698.9634,1645.6094" style="stroke:#181818;stroke-width:1;"/><line style="stroke:#181818;stroke-width:1;" x1="943.7378" x2="1700.9634" y1="1645.6094" y2="1645.6094"/><text fill="#000000" font-family="sans-serif" font-size="13" lengthAdjust="spacing" textLength="259.5049" x="950.7378" y="1640.5435">ABikeArrivedToUser (triggera start ride)</text></g><rect fill="#EEEEEE" height="3" style="stroke:#EEEEEE;stroke-width:1;" width="2399.3149" x="0" y="1681.1758"/><line style="stroke:#000000;stroke-width:1;" x1="0" x2="2399.3149" y1="1681.1758" y2="1681.1758"/><line style="stroke:#000000;stroke-width:1;" x1="0" x2="2399.3149" y1="1684.1758" y2="1684.1758"/><rect fill="#EEEEEE" height="23.1328" style="stroke:#000000;stroke-width:2;" width="133.3423" x="1132.9863" y="1670.6094"/><text fill="#000000" font-family="sans-serif" font-size="13" font-weight="bold" lengthAdjust="spacing" textLength="114.8164" x="1138.9863" y="1686.6763">Ride con A-Bike</text><g class="message" data-participant-1="RideMS" data-participant-2="RideMS"><line style="stroke:#181818;stroke-width:1;" x1="1706.9634" x2="1748.9634" y1="1724.875" y2="1724.875"/><line style="stroke:#181818;stroke-width:1;" x1="1748.9634" x2="1748.9634" y1="1724.875" y2="1737.875"/><line style="stroke:#181818;stroke-width:1;" x1="1707.9634" x2="1748.9634" y1="1737.875" y2="1737.875"/><polygon fill="#181818" points="1717.9634,1733.875,1707.9634,1737.875,1717.9634,1741.875,1713.9634,1737.875" style="stroke:#181818;stroke-width:1;"/><text fill="#000000" font-family="sans-serif" font-size="13" lengthAdjust="spacing" textLength="146.8213" x="1713.9634" y="1719.8091">Avvia ride simulazione</text></g><path d="M907.0503,1752.875 L983.6743,1752.875 L983.6743,1760.0078 L973.6743,1770.0078 L907.0503,1770.0078 L907.0503,1752.875" fill="#EEEEEE" style="stroke:#000000;stroke-width:1.5;"/><rect fill="none" height="81.3984" style="stroke:#000000;stroke-width:1.5;" width="1482.2646" x="907.0503" y="1752.875"/><text fill="#000000" font-family="sans-serif" font-size="13" font-weight="bold" lengthAdjust="spacing" textLength="31.624" x="922.0503" y="1765.9419">loop</text><text fill="#000000" font-family="sans-serif" font-size="11" font-weight="bold" lengthAdjust="spacing" textLength="87.5166" x="998.6743" y="1765.0854">[durante ride]</text><g class="message" data-participant-1="RideMS" data-participant-2="Kafka"><polygon fill="#181818" points="954.7378,1787.1406,944.7378,1791.1406,954.7378,1795.1406,950.7378,1791.1406" style="stroke:#181818;stroke-width:1;"/><line style="stroke:#181818;stroke-width:1;" x1="948.7378" x2="1705.9634" y1="1791.1406" y2="1791.1406"/><text fill="#000000" font-family="sans-serif" font-size="13" lengthAdjust="spacing" textLength="237.3706" x="960.7378" y="1786.0747">produce RideUpdateABikeEventAvro</text></g><path d="M1711,1804.1406 L1711,1829.1406 L2379,1829.1406 L2379,1814.1406 L2369,1804.1406 L1711,1804.1406" fill="#FEFFDD" style="stroke:#181818;stroke-width:0.5;"/><path d="M2369,1804.1406 L2369,1814.1406 L2379,1814.1406 L2369,1804.1406" fill="#FEFFDD" style="stroke:#181818;stroke-width:0.5;"/><text fill="#000000" font-family="sans-serif" font-size="13" lengthAdjust="spacing" textLength="647.3149" x="1717" y="1821.2075">Il comportamento della ride con A-Bike segue lo stesso pattern gi&#224; descritto per le ride tradizionali.</text><path d="M479.5098,1848.2734 L543.9526,1848.2734 L543.9526,1855.4063 L533.9526,1865.4063 L479.5098,1865.4063 L479.5098,1848.2734" fill="#EEEEEE" style="stroke:#000000;stroke-width:1.5;"/><rect fill="none" height="423.8594" style="stroke:#000000;stroke-width:1.5;" width="1306.3052" x="479.5098" y="1848.2734"/><text fill="#000000" font-family="sans-serif" font-size="13" font-weight="bold" lengthAdjust="spacing" textLength="19.4429" x="494.5098" y="1861.3403">alt</text><text fill="#000000" font-family="sans-serif" font-size="11" font-weight="bold" lengthAdjust="spacing" textLength="229.6304" x="558.9526" y="1860.4839">[Termina ride (da GUI o automatico)]</text><g class="message" data-participant-1="RideMS" data-participant-2="Kafka"><polygon fill="#181818" points="954.7378,1882.5391,944.7378,1886.5391,954.7378,1890.5391,950.7378,1886.5391" style="stroke:#181818;stroke-width:1;"/><line style="stroke:#181818;stroke-width:1;" x1="948.7378" x2="1705.9634" y1="1886.5391" y2="1886.5391"/><text fill="#000000" font-family="sans-serif" font-size="13" lengthAdjust="spacing" textLength="219.8447" x="960.7378" y="1881.4731">produce RideStopABikeEventAvro</text></g><g class="message" data-participant-1="Kafka" data-participant-2="ABikeMS"><polygon fill="#181818" points="583.6987,1911.6719,573.6987,1915.6719,583.6987,1919.6719,579.6987,1915.6719" style="stroke:#181818;stroke-width:1;"/><line style="stroke:#181818;stroke-width:1;" x1="577.6987" x2="942.7378" y1="1915.6719" y2="1915.6719"/><text fill="#000000" font-family="sans-serif" font-size="13" lengthAdjust="spacing" textLength="347.0391" x="589.6987" y="1910.606">RideStopABikeEventAvro (triggera ritorno a stazione)</text></g><g class="message" data-participant-1="ABikeMS" data-participant-2="ABikeMS"><line style="stroke:#181818;stroke-width:1;" x1="572.6987" x2="614.6987" y1="1944.8047" y2="1944.8047"/><line style="stroke:#181818;stroke-width:1;" x1="614.6987" x2="614.6987" y1="1944.8047" y2="1957.8047"/><line style="stroke:#181818;stroke-width:1;" x1="573.6987" x2="614.6987" y1="1957.8047" y2="1957.8047"/><polygon fill="#181818" points="583.6987,1953.8047,573.6987,1957.8047,583.6987,1961.8047,579.6987,1957.8047" style="stroke:#181818;stroke-width:1;"/><text fill="#000000" font-family="sans-serif" font-size="13" lengthAdjust="spacing" textLength="235.8535" x="579.6987" y="1939.7388">Avvia simulazione ritorno a stazione</text></g><path d="M489.5098,1972.8047 L566.1338,1972.8047 L566.1338,1979.9375 L556.1338,1989.9375 L489.5098,1989.9375 L489.5098,1972.8047" fill="#EEEEEE" style="stroke:#000000;stroke-width:1.5;"/><rect fill="none" height="75.3984" style="stroke:#000000;stroke-width:1.5;" width="1000.106" x="489.5098" y="1972.8047"/><text fill="#000000" font-family="sans-serif" font-size="13" font-weight="bold" lengthAdjust="spacing" textLength="31.624" x="504.5098" y="1985.8716">loop</text><text fill="#000000" font-family="sans-serif" font-size="11" font-weight="bold" lengthAdjust="spacing" textLength="63.7817" x="581.1338" y="1985.0151">[ogni tick]</text><g class="message" data-participant-1="ABikeMS" data-participant-2="Kafka"><polygon fill="#181818" points="931.7378,2007.0703,941.7378,2011.0703,931.7378,2015.0703,935.7378,2011.0703" style="stroke:#181818;stroke-width:1;"/><line style="stroke:#181818;stroke-width:1;" x1="572.6987" x2="937.7378" y1="2011.0703" y2="2011.0703"/><text fill="#000000" font-family="sans-serif" font-size="13" lengthAdjust="spacing" textLength="141.3496" x="579.6987" y="2006.0044">produce ABikeUpdate</text></g><g class="message" data-participant-1="Kafka" data-participant-2="MapMS"><polygon fill="#181818" points="1399.5503,2036.2031,1409.5503,2040.2031,1399.5503,2044.2031,1403.5503,2040.2031" style="stroke:#181818;stroke-width:1;"/><line style="stroke:#181818;stroke-width:1;" x1="943.7378" x2="1405.5503" y1="2040.2031" y2="2040.2031"/><text fill="#000000" font-family="sans-serif" font-size="13" lengthAdjust="spacing" textLength="84.0303" x="950.7378" y="2035.1372">ABikeUpdate</text></g><g class="message" data-participant-1="ABikeMS" data-participant-2="Kafka"><polygon fill="#181818" points="931.7378,2072.3359,941.7378,2076.3359,931.7378,2080.3359,935.7378,2076.3359" style="stroke:#181818;stroke-width:1;"/><line style="stroke:#181818;stroke-width:1;" x1="572.6987" x2="937.7378" y1="2076.3359" y2="2076.3359"/><text fill="#000000" font-family="sans-serif" font-size="13" lengthAdjust="spacing" textLength="181.1875" x="579.6987" y="2071.27">produce ABikeCallComplete</text></g><g class="message" data-participant-1="Kafka" data-participant-2="MapMS"><polygon fill="#181818" points="1399.5503,2101.4688,1409.5503,2105.4688,1399.5503,2109.4688,1403.5503,2105.4688" style="stroke:#181818;stroke-width:1;"/><line style="stroke:#181818;stroke-width:1;" x1="943.7378" x2="1405.5503" y1="2105.4688" y2="2105.4688"/><text fill="#000000" font-family="sans-serif" font-size="13" lengthAdjust="spacing" textLength="291.8208" x="950.7378" y="2100.4028">ABikeCallComplete (disassocia abike-utente)</text></g><g class="message" data-participant-1="ABikeMS" data-participant-2="Kafka"><polygon fill="#181818" points="931.7378,2130.6016,941.7378,2134.6016,931.7378,2138.6016,935.7378,2134.6016" style="stroke:#181818;stroke-width:1;"/><line style="stroke:#181818;stroke-width:1;" x1="572.6987" x2="937.7378" y1="2134.6016" y2="2134.6016"/><text fill="#000000" font-family="sans-serif" font-size="13" lengthAdjust="spacing" textLength="203.5186" x="579.6987" y="2129.5356">produce ABikeArrivedToStation</text></g><g class="message" data-participant-1="Kafka" data-participant-2="StationMS"><polygon fill="#181818" points="1143.5967,2159.7344,1153.5967,2163.7344,1143.5967,2167.7344,1147.5967,2163.7344" style="stroke:#181818;stroke-width:1;"/><line style="stroke:#181818;stroke-width:1;" x1="943.7378" x2="1149.5967" y1="2163.7344" y2="2163.7344"/><text fill="#000000" font-family="sans-serif" font-size="13" lengthAdjust="spacing" textLength="146.1992" x="950.7378" y="2158.6685">ABikeArrivedToStation</text></g><g class="message" data-participant-1="StationMS" data-participant-2="StationMS"><line style="stroke:#181818;stroke-width:1;" x1="1155.5967" x2="1197.5967" y1="2192.8672" y2="2192.8672"/><line style="stroke:#181818;stroke-width:1;" x1="1197.5967" x2="1197.5967" y1="2192.8672" y2="2205.8672"/><line style="stroke:#181818;stroke-width:1;" x1="1156.5967" x2="1197.5967" y1="2205.8672" y2="2205.8672"/><polygon fill="#181818" points="1166.5967,2201.8672,1156.5967,2205.8672,1166.5967,2209.8672,1162.5967,2205.8672" style="stroke:#181818;stroke-width:1;"/><text fill="#000000" font-family="sans-serif" font-size="13" lengthAdjust="spacing" textLength="84.7856" x="1162.5967" y="2187.8013">Docka a-bike</text></g><g class="message" data-participant-1="StationMS" data-participant-2="Kafka"><polygon fill="#181818" points="954.7378,2231,944.7378,2235,954.7378,2239,950.7378,2235" style="stroke:#181818;stroke-width:1;"/><line style="stroke:#181818;stroke-width:1;" x1="948.7378" x2="1154.5967" y1="2235" y2="2235"/><text fill="#000000" font-family="sans-serif" font-size="13" lengthAdjust="spacing" textLength="187.8589" x="960.7378" y="2229.9341">produce StationUpdateEvent</text></g><g class="message" data-participant-1="Kafka" data-participant-2="ABikeMS"><polygon fill="#181818" points="583.6987,2260.1328,573.6987,2264.1328,583.6987,2268.1328,579.6987,2264.1328" style="stroke:#181818;stroke-width:1;"/><line style="stroke:#181818;stroke-width:1;" x1="577.6987" x2="942.7378" y1="2264.1328" y2="2264.1328"/><text fill="#000000" font-family="sans-serif" font-size="13" lengthAdjust="spacing" textLength="271.7432" x="589.6987" y="2259.0669">StationUpdateEvent (aggiorna projection)</text></g><!--SRC=[xLRDSjCm4BxxANPwicSekJCJPa8fJ8V9q4bIJbosbkg8AfAHPHzwuZMuyHgS-oOy2Il9iUEVf0amSA6dHlfMsltssq_6r6e3DvOhowCeHsD5Ad9K5ivcrrUmk5okFgfuzahSSvYBrEY2cqgaF3a3BC2l4wuNE42tuFcoYts7T_Vej_r_tSsbHIkq6XvLR_GFcsC-nD9Y7tT3-qEWM-qZ5uADLE9M2HbDft1XE3vGAXncvxxiwJIA0frm_h8X25vGKBeMlB08QHE3vxSk9hv-lrp117CnGRTGJ1p4yYHguhTdpPTqLDZrl-CQG-i4yHmI83UQbIclhpT6L9ojTCrQ5504RsYaa54ey8egYQ8Ms8lwW58mX28iaL8OIac_ItGvVEAfFqNg52LLWz8wQAYT5w8WaZYi2P-xnGZeR-zLhtLAMTFXWRGXk5zylNcJCoBhqXV25OlQybj2Xr28CSk4DgfJI9syI7plsuxMlIScd7eub440UxLmiHQuGOiZ0Y2cvCmjxcs-0mnRtm9MHbVOyfoBn-z0qXKAFoh5zxRdIHqj-EUIgkMiPT3FrbOypJx4ESqNALaAYuRJvNIX50yF8QF9hL1Cg0omvYaveCZsqlqYN8XDgQjccjXEyN6f6EacYKvLoXzIoG5EBxQD3XSszmKRSYBf022kDveRfVPpfvrPC65rmwRJvf8uaJK96rs93MrfgBWfzAuwHmKqgof178wU48U3NPr99BNEGMTA03dclP_8fqGKoFFGfk9WfzkE1yGuiuQGIJUu8y5Xh2v4AA4eOODvZaam0Q9efbH9qn3gCiqiZmsnCwvwa354jG4-dT4ftnrgbNBf6jgID3BO3kHHST8diuMzuMRJwSupGDymGnemIaChVt_8I9DERDIlDIiPnXxkLTqU5-5QT4oIZgiBlSabxskgSzKk368c2YmAdH9b_hKztyxDCJSE7jFEhKy-gCSySR_nldMIETcuQ3HauJval8sYIzsDWvG_ldmD79r6aJEi0rtfuCPri4TrlKXhH9PnutLlR6qIsodtNt0fUSVEzrbzMkVSUeG8l3DQmU5OQT1DjzlrQRNnVGBSJg3P9-gvdbKcVDeexG_9rXRqtVOZyafITfjS6rix4UF1Nhff5pmhUR1yJk8bYxAM6mMPUFn68KLAqq_1xk6L8LEm1fatFtfxdpi-V0A166TeAp8I-YW8OFfmWxStLq3sKLfDtoOYrSaHnIwjpaTA7H7XE7gdUqF_Ek22mpVgxzZVY8NzTwn_wLYA_GG0]--></g></svg>